<?xml version="1.0" encoding="utf-8"?>
<!-- Generator: Adobe Illustrator 16.0.4, SVG Export Plug-In . SVG Version: 6.00 Build 0)  -->
<!DOCTYPE svg PUBLIC "-//W3C//DTD SVG 1.1//EN" "http://www.w3.org/Graphics/SVG/1.1/DTD/svg11.dtd">
<svg version="1.1" id="Layer_3" xmlns="http://www.w3.org/2000/svg" xmlns:xlink="http://www.w3.org/1999/xlink" x="0px" y="0px"
	 width="491.111px" height="225.186px" viewBox="0 0 491.111 225.186" enable-background="new 0 0 491.111 225.186"
	 xml:space="preserve">
<g>
	<g>
		<g>
			<path fill="#88C540" d="M120.63,212.782c-7.168-0.673-20.75-9.471-29.229-19.54c-20.269-24.564-36.267-49.19-47.996-73.88
				c-1.52,0.014-3.04,0.027-4.559,0.04c-10.471,0.057-23.58-7.927-28.055-17.804C6.241,91.584,12.759,82.966,24.12,82.444
				c1.627-0.069,3.255-0.139,4.883-0.206c-1.232-4.091-2.347-8.183-3.346-12.277c-0.507-2.039-2.766-12.652,2.263-24.134
				c7.279-17.418,25.576-28.653,48.51-30.411c12.008-0.926,21.781,7.331,22.447,18.221c0.652,11.235-7.668,20.36-19.645,20.906
				c-7.453,0.36-9.407,2.782-10.353,5.324c-0.032,0.085-0.068,0.168-0.108,0.25c-1.56,3.16-1.276,7.051-1.121,7.846
				c0.809,4.243,1.712,8.481,2.709,12.717c4.452-0.15,8.904-0.295,13.355-0.434c11.547-0.385,22.473,8.265,25.035,19.177
				c2.487,10.759-3.612,19.507-14.255,19.553c-4.157,0.027-8.314,0.056-12.471,0.084c9.498,25.487,22.453,50.837,38.867,76.049
				C127.469,205.494,127.721,213.443,120.63,212.782z"/>
			<path fill="#FFFFFF" d="M76.479,18.678c10.078-0.749,18.098,6.112,18.665,15.159c0.562,9.332-6.414,16.986-16.329,17.462
				c-9.335,0.473-12.21,3.969-13.476,7.352c-1.837,3.692-1.606,8.1-1.333,9.47c1.033,5.296,2.217,10.587,3.552,15.873
				c5.624-0.182,11.247-0.354,16.871-0.517c9.642-0.299,18.672,7.065,20.839,16.005c2.141,8.941-2.839,16.224-11.852,16.285
				c-5.312,0.045-10.623,0.093-15.935,0.143c9.789,26.495,23.406,52.846,40.851,79.054c5.621,8.632,5.789,15.241-0.209,14.716
				c-5.979-0.527-17.232-7.845-24.162-16.259c-20.764-25.65-36.971-51.377-48.622-77.178c-2.656,0.029-5.311,0.06-7.967,0.091
				c-8.724,0.077-19.436-6.567-23.098-14.831c-3.678-8.26,1.48-15.585,10.82-15.982c2.812-0.112,5.623-0.222,8.435-0.329
				c-1.589-5.137-2.998-10.276-4.228-15.419c-0.456-1.875-2.561-11.948,2.139-22.813C38.196,30.574,55.215,20.252,76.479,18.678
				 M76.413,12.153c-12.073,0.93-22.928,4.388-32.043,10.028c-9.183,5.698-16.121,13.32-19.989,22.577
				c-5.34,12.083-2.915,23.248-2.368,25.396c0.759,3.053,1.585,6.104,2.477,9.154c-0.433,0.02-0.866,0.04-1.299,0.06
				C9.785,80.029,1.916,90.082,7.309,101.697c5.315,11.479,20.872,20.798,33.057,20.774c0.4-0.003,0.8-0.005,1.2-0.007
				c11.772,23.583,27.531,47.115,47.277,70.597c10.09,11.72,26.146,22.006,34.335,22.823c8.124,0.805,7.755-8.48,0.271-20.632
				c-15.41-24.21-27.708-48.552-36.896-73.026c3.018-0.014,6.036-0.027,9.053-0.041c12.366-0.023,19.433-10.229,16.625-22.817
				c-2.898-12.743-15.596-22.838-29.197-22.352c-3.269,0.108-6.538,0.221-9.808,0.336c-0.696-3.179-1.341-6.359-1.933-9.542
				c-0.146-0.819-0.203-3.95,0.907-6.216c0.08-0.164,0.151-0.331,0.214-0.501c0.496-1.344,1.134-3.025,7.265-3.308
				c13.993-0.605,23.658-11.219,22.928-24.343C101.85,20.695,90.489,11.027,76.413,12.153L76.413,12.153z"/>
		</g>
		<g>
			<path fill="#88C540" d="M170.831,216.326c-7.071-0.398-17.818-9.327-23.282-19.867c-26.933-53.496-42.045-107.829-45.337-162.997
				c-0.667-10.857,8.956-20.377,20.778-21.041c12.005-0.673,21.777,8.004,22.231,19.144c2.311,56.371,12.916,111.709,31.817,166.015
				C180.603,208.308,178.019,216.729,170.831,216.326z"/>
			<path fill="#FFFFFF" d="M123.026,15.778c10.078-0.543,18.072,6.661,18.463,15.925c2.396,56.283,13.392,111.548,32.991,165.795
				c3.109,8.926,1.028,15.934-5.156,15.608c-5.984-0.316-14.802-7.737-19.216-16.534c-26.236-53.578-40.957-108.012-44.164-163.301
				C105.405,24.201,113.265,16.306,123.026,15.778 M122.978,9.061C109.094,9.87,97.68,21.018,98.48,33.658
				c3.377,55.044,18.881,109.273,46.51,162.686c6.572,12.281,19.274,22.714,27.372,23.2c8.216,0.489,11.2-9.347,7.236-21.886
				c-18.205-54.362-28.419-109.771-30.645-166.227C148.442,18.404,137.051,8.244,122.978,9.061L122.978,9.061z"/>
		</g>
		<g>
			<path fill="#88C540" d="M224.849,218.167c-14.626-0.236-28.735-10.539-41.396-28.691c-8.354-11.878-12.049-23.113-12.823-26.284
				c-5.658-21.314-10.132-42.788-13.423-64.421c-1.761-11.122,6.435-20.401,17.805-20.569c11.543-0.169,21.455,8.966,22.328,20.238
				c1.811,21.879,4.272,43.58,7.386,65.104c-0.001,0.033,0.832,4.621,3.317,8.951c1.901,2.898,4.547,5.968,12.087,6.026
				c7.438,0.053,9.538-3.08,10.593-5.812c0.015-0.035,0.027-0.071,0.043-0.105c1.804-4.257,1.767-8.891,1.759-8.937
				c-1.039-21.601-1.859-43.385-2.464-65.354c-0.373-11.31,8.657-20.606,20.032-20.599c11.375,0.009,20.323,9.313,19.814,20.615
				c-0.865,21.961-2.042,43.738-3.529,65.332c-0.163,3.196-1.59,14.549-7.027,26.508
				C250.608,208.415,239.316,218.388,224.849,218.167z"/>
			<path fill="#FFFFFF" d="M250.075,81.119c9.346,0.007,16.714,7.625,16.349,17.201c-0.736,21.967-1.738,43.751-3.006,65.351
				c-0.078,2.284-1.199,13.411-6.396,25.061c-7.995,17.039-18.694,26.356-32.604,26.155c-14.066-0.215-27.34-9.819-38.974-26.8
				c-8.046-11.617-11.347-22.597-11.857-24.856c-5.438-21.338-9.737-42.837-12.898-64.496c-1.425-9.435,5.293-17.034,14.635-17.162
				c9.35-0.127,17.73,7.349,18.532,16.889c1.938,21.862,4.575,43.549,7.91,65.06c0.078,0.567,1.15,5.687,4.003,10.528
				c2.445,3.704,5.983,7.711,14.714,7.783c8.504,0.064,11.407-3.906,12.864-7.603c2.078-4.833,2.165-9.975,2.135-10.544
				c-0.818-21.608-1.465-43.401-1.94-65.379C233.291,88.725,240.73,81.113,250.075,81.119 M250.106,74.305
				c-13.425-0.009-24.051,10.844-23.529,24.016c0.731,21.942,1.727,43.702,2.983,65.278c0.008,0.327-0.01,4.026-1.408,7.375
				c-0.028,0.07-0.057,0.14-0.084,0.21c-0.501,1.319-1.51,4.065-8.286,4.021c-6.517-0.046-8.242-2.423-9.427-4.258
				c-1.92-3.444-2.628-7.13-2.681-7.451c-2.889-21.514-5.173-43.206-6.854-65.076c-0.931-13.143-12.514-23.807-26.108-23.594
				c-13.419,0.213-23.129,11.045-20.989,23.981c3.418,21.605,8.067,43.053,13.947,64.344c0.848,3.349,4.894,15.199,13.855,27.752
				c13.714,19.301,28.585,30.282,43.76,30.541c15.023,0.243,26.848-10.381,36.313-29.747c0.015-0.031,0.029-0.063,0.044-0.096
				c5.845-12.593,7.489-24.576,7.691-27.951c1.709-21.588,3.061-43.358,4.054-65.311C274.068,85.179,263.531,74.317,250.106,74.305
				L250.106,74.305z"/>
		</g>
		<g>
			<path fill="#88C540" d="M308.585,216.977c-7.043,0.308-12.707-1.954-17.75-6.76c-3.847,4.756-8.29,7.662-12.346,7.754
				c-7.081,0.167-11.95-8.544-10.977-19.404c5.739-55.019,8.96-111.243,9.662-168.673c0.132-11.335,9.763-20.494,21.595-20.213
				c11.993,0.285,21.756,9.805,21.411,21.021c-0.526,17.795-1.643,35.48-3.351,53.056c8.535-3.553,17.713-5.311,26.729-5.142
				c37.564,0.955,62.383,32.524,45.02,69.258C370.752,184.529,330.282,215.76,308.585,216.977z M337.126,118.661
				c-13.896-0.079-26.467,13.165-29.375,29.978c-2.752,16.376,3.396,29.441,14.42,29.187c10.996-0.265,25.467-13.503,30.902-29.541
				C358.54,132.097,350.766,118.745,337.126,118.661z"/>
			<path fill="#FFFFFF" d="M298.754,13.125c10.068,0.23,17.967,8.123,17.694,17.479c-0.553,19.708-1.792,39.282-3.717,58.72
				c9.111-4.824,19.636-7.556,30.402-7.366c35.358,0.84,58.504,30.876,42.343,65.956c-16.483,34.868-54.582,64.711-75.653,65.821
				c-7.611,0.316-13.565-2.51-18.635-7.969c-3.247,5.095-7.703,8.836-12.061,8.93c-5.991,0.134-10.006-7.111-9.057-16.156
				c6.437-54.999,10.049-111.2,10.835-168.603C281.03,20.498,288.985,12.901,298.754,13.125 M321.15,181.094
				c12.234-0.32,28.772-15.032,35.026-32.841c6.31-18.078-2.849-32.787-18.406-32.908c-15.869-0.112-30.117,14.794-33.122,33.312
				C301.79,166.89,308.657,181.405,321.15,181.094 M298.774,6.232c-13.898-0.342-25.197,10.383-25.332,23.622
				c-0.616,57.455-3.446,113.699-8.488,168.734c-0.941,12.683,4.775,22.856,12.887,22.652c4.039-0.096,8.411-2.646,12.473-6.917
				c4.897,4.179,10.446,6.194,17.013,5.892c22.21-1.327,65.202-34.081,84.356-72.384c18.598-38.368-7.999-71.485-47.718-72.562
				c-7.739-0.154-15.58,1.021-23.071,3.46c1.513-15.887,2.52-31.863,3.02-47.928C324.337,17.728,312.832,6.58,298.774,6.232
				L298.774,6.232z M323.171,174.555c-9.671,0.205-14.928-11.404-12.316-25.934c2.695-14.688,13.909-26.698,25.607-26.647
				c11.677,0.055,18.212,11.918,13.509,26.341C345.308,162.586,332.819,174.342,323.171,174.555L323.171,174.555z"/>
		</g>
		<g>
			<path fill="#88C540" d="M366.826,213.25c-7.09,0.633-7.135-7.375-0.88-17.807c19.506-31.622,33.882-63.479,43.127-95.574
				c3.037-10.746,14.117-19.208,25.504-18.769c4.393,0.159,8.125,1.451,10.831,3.729c7.198-1.951,15.056-2.739,23.351-2.385
				c11.36,0.521,17.879,9.14,13.328,19.154c-4.475,9.877-17.585,17.86-28.055,17.804c-6.056-0.056-10.916,1.1-13.375,3.181
				c-0.569,0.542-1.099,1.23-1.375,1.62c-11.034,23.221-25.649,46.371-43.847,69.453C387.28,203.787,373.995,212.606,366.826,213.25
				z"/>
			<path fill="#FFFFFF" d="M467.785,85.52c9.331,0.396,14.603,7.462,10.819,15.982c-3.663,8.264-14.376,14.908-23.098,14.831
				c-5.229-0.062-12.45,0.651-16.968,4.632c-1.42,1.329-2.43,2.93-2.431,2.93c-10.861,23.387-25.271,46.697-43.232,69.933
				c-6.654,8.464-17.479,15.783-23.65,16.304c-5.998,0.503-6.071-6.155-0.721-14.827c19.924-31.562,34.607-63.35,44.051-95.366
				c2.633-9.074,11.843-16.002,21.197-15.667c4.363,0.147,7.786,1.635,9.952,4.15C450.792,86.206,458.763,85.159,467.785,85.52
				 M469.688,79.368c-8.038-0.365-15.701,0.29-22.805,1.989c-3.078-2.071-7.015-3.254-11.52-3.427
				c-13.44-0.557-26.319,9.317-29.772,21.872c-9.047,32.171-23.115,64.096-42.204,95.777c-7.104,12.204-7.121,21.559,1.001,20.788
				c8.19-0.782,23.895-11.094,33.606-22.886c18.408-22.899,33.214-45.861,44.416-68.885c0.112-0.143,0.23-0.282,0.331-0.391
				c0.854-0.583,3.84-1.772,9.771-1.735c12.187,0.023,27.742-9.296,33.058-20.774C490.962,90.083,483.094,80.029,469.688,79.368
				L469.688,79.368z"/>
		</g>
	</g>
</g>
</svg>
