<?xml version="1.0" encoding="utf-8"?>
<!-- Generator: Adobe Illustrator 16.0.4, SVG Export Plug-In . SVG Version: 6.00 Build 0)  -->
<!DOCTYPE svg PUBLIC "-//W3C//DTD SVG 1.1//EN" "http://www.w3.org/Graphics/SVG/1.1/DTD/svg11.dtd">
<svg version="1.1" xmlns="http://www.w3.org/2000/svg" xmlns:xlink="http://www.w3.org/1999/xlink" x="0px" y="0px"
	 width="288.889px" height="318.869px" viewBox="0 0 288.889 318.869" enable-background="new 0 0 288.889 318.869"
	 xml:space="preserve">
<g id="Layer_1" display="none">
	
		<image display="inline" overflow="visible" width="282" height="282" xlink:href="flubber_ico.jpg"  transform="matrix(0.936 0 0 0.9912 10.4453 24.3667)">
	</image>
</g>
<g id="Layer_2">
	<g>
		<path fill="#659E0A" d="M176.386,313.869c-5.125,0-9.957-1.339-13.975-3.872c-9.203-5.801-9.436-16.59-9.605-24.468l-0.003-0.111
			c-0.089-4.084-0.339-8.268-0.58-12.314c-0.163-2.745-0.333-5.583-0.453-8.401c-0.009-0.19-0.025-0.335-0.043-0.438
			c-0.284-0.078-0.879-0.184-2.021-0.184c-0.925,0-1.936,0.065-3.005,0.134c-1.128,0.072-2.294,0.147-3.438,0.147
			c-0.771-0.002-1.503-0.024-2.232-0.048c-0.653-0.021-1.305-0.043-1.939-0.043c-1.039,0-1.629,0.069-1.95,0.133
			c-0.01,0.083-0.018,0.183-0.023,0.301c-0.12,2.813-0.289,5.647-0.452,8.389c-0.24,4.05-0.49,8.237-0.579,12.325l-0.003,0.119
			c-0.172,7.874-0.407,18.659-9.606,24.46c-4.019,2.533-8.851,3.871-13.974,3.871c-2.885,0-5.705-0.429-8.383-1.274
			c-12.547-3.964-16.006-15.474-18.786-24.722c-0.303-1.008-0.604-2.011-0.915-3c-1.622-5.164-3.266-10.322-4.91-15.48
			c-6.318-19.826-12.851-40.327-18.02-60.93c-3.427-13.658-4.364-24.41-3.039-34.863c0.078-0.615,0.183-1.253,0.289-1.894
			c0.052-0.312,0.113-0.68,0.167-1.046c-7.747,0.487-15.959,1.334-25.73,2.651c-2.03,0.274-4.721,0.588-7.535,0.588
			c-6.467,0-11.505-1.683-15.402-5.146c-3.289-2.923-5.098-6.755-5.232-11.083c-0.234-7.517,4.701-15.249,9.397-19.979
			c5.86-5.902,13.124-9.753,20.147-13.478c4.104-2.176,7.979-4.231,11.5-6.63c1.366-0.931,2.753-1.829,4.142-2.727
			c3.435-2.222,6.679-4.32,9.492-6.862C74.074,95,83.23,76.596,86.169,54.772c0.072-0.533,0.181-1.064,0.295-1.594l0.102-0.484
			c0.903-4.574,2.03-9.875,3.975-14.91c1.834-4.75,4.346-9.12,7.466-12.987c3.206-3.975,6.975-7.407,11.202-10.202
			c4.471-2.957,9.673-5.256,15.461-6.836C131.378,5.928,138.188,5,144.91,5c6.503,0,12.99,0.87,19.28,2.586
			c5.865,1.6,11.199,4.055,15.852,7.296c4.218,2.937,8.002,6.49,11.247,10.562c3.254,4.084,5.811,8.646,7.599,13.557
			c1.773,4.875,3.099,10.328,3.832,15.771c2.938,21.824,12.096,40.228,26.481,53.222c2.812,2.542,6.056,4.64,9.49,6.861
			c1.389,0.898,2.777,1.797,4.144,2.728c3.521,2.398,7.396,4.454,11.5,6.629c7.024,3.725,14.287,7.576,20.147,13.479
			c4.697,4.73,9.632,12.462,9.397,19.979c-0.135,4.328-1.943,8.16-5.231,11.082c-3.897,3.463-8.937,5.146-15.403,5.146
			c0,0,0,0-0.001,0c-2.814,0-5.504-0.314-7.533-0.588c-9.783-1.318-17.995-2.165-25.73-2.651c0.055,0.366,0.115,0.734,0.167,1.047
			c0.106,0.641,0.211,1.278,0.289,1.894c1.325,10.452,0.388,21.205-3.04,34.864c-5.17,20.609-11.706,41.118-18.026,60.952
			c-1.642,5.15-3.282,10.3-4.901,15.455c-0.311,0.988-0.611,1.991-0.914,2.998c-2.779,9.249-6.238,20.761-18.785,24.726
			C182.09,313.44,179.27,313.869,176.386,313.869z"/>
		<path fill="#FFFFFF" d="M144.91,10c6.012,0,12.024,0.789,17.964,2.41c5.104,1.393,9.963,3.547,14.311,6.575
			c3.834,2.669,7.283,5.922,10.194,9.575c2.915,3.659,5.21,7.755,6.811,12.151c1.705,4.686,2.909,9.785,3.575,14.728
			c2.871,21.323,11.884,41.631,28.085,56.265c4.312,3.896,9.386,6.75,14.17,10.01c9.934,6.768,22.36,10.882,30.915,19.499
			c5.722,5.762,12.106,16.945,4.393,23.801c-3.391,3.013-7.706,3.884-12.082,3.884c-2.313,0-4.646-0.243-6.865-0.543
			c-9.053-1.22-18.06-2.216-27.179-2.753c-0.203-0.012-0.398-0.018-0.584-0.018c-5.317,0-3.629,4.795-3.142,8.643
			c1.423,11.218-0.2,22.146-2.929,33.02c-6.449,25.708-14.909,50.852-22.849,76.126c-3.074,9.788-5.258,20.922-16.436,24.454
			c-2.187,0.69-4.527,1.042-6.877,1.042c-3.986,0-7.995-1.013-11.308-3.102c-6.964-4.39-7.116-13.048-7.276-20.458
			c-0.152-6.96-0.739-13.874-1.037-20.821c-0.196-4.57-3.371-5.408-7.059-5.408c-2.136,0-4.442,0.281-6.442,0.281
			c-0.014,0-0.028,0-0.042,0c-1.361-0.004-2.78-0.091-4.13-0.091c-3.635,0-6.772,0.631-6.969,5.22
			c-0.298,6.946-0.883,13.86-1.035,20.818c-0.162,7.41-0.314,16.068-7.277,20.459c-3.314,2.089-7.321,3.101-11.307,3.101
			c-2.349,0-4.69-0.352-6.877-1.042c-11.178-3.531-13.361-14.665-16.437-24.453c-7.939-25.274-16.4-50.418-22.85-76.128
			c-2.727-10.87-4.35-21.8-2.928-33.018c0.488-3.848,2.178-8.643-3.141-8.643c-0.186,0-0.381,0.006-0.584,0.018
			c-9.119,0.537-18.125,1.532-27.177,2.753c-2.222,0.3-4.552,0.543-6.867,0.543c-4.375,0-8.691-0.871-12.081-3.884
			c-7.715-6.857-1.33-18.039,4.392-23.801c8.556-8.617,20.982-12.731,30.916-19.499c4.785-3.26,9.857-6.114,14.17-10.01
			C79.241,97.07,88.253,76.761,91.124,55.439c0.08-0.594,0.231-1.188,0.348-1.776c0.941-4.765,1.979-9.534,3.733-14.077
			c1.623-4.203,3.864-8.142,6.694-11.65c2.86-3.545,6.269-6.658,10.069-9.171c4.293-2.839,9.064-4.831,14.02-6.183
			C132.235,10.877,138.572,10,144.91,10 M144.91,0c-7.168,0-14.42,0.988-21.557,2.936c-6.301,1.719-11.988,4.239-16.902,7.488
			c-4.656,3.08-8.807,6.859-12.335,11.233c-3.446,4.272-6.219,9.092-8.24,14.327c-2.089,5.408-3.271,10.961-4.215,15.742
			c-0.026,0.131-0.055,0.264-0.084,0.396c-0.108,0.501-0.256,1.188-0.363,1.98c-1.938,14.392-7.826,34.779-24.878,50.181
			c-2.516,2.273-5.596,4.265-8.856,6.375c-1.381,0.894-2.81,1.817-4.241,2.792c-3.293,2.243-7.05,4.235-11.028,6.345
			c-7.354,3.899-14.958,7.931-21.354,14.372c-2.635,2.653-11.204,12.202-10.847,23.657c0.179,5.736,2.567,10.807,6.908,14.665
			c4.786,4.253,11.085,6.41,18.724,6.41c3.112,0,6.019-0.339,8.205-0.634c7.143-0.963,13.437-1.671,19.317-2.169
			c-1.099,13.193,1.414,25.358,3.477,33.582c5.207,20.755,11.764,41.331,18.105,61.23c1.615,5.069,3.286,10.311,4.903,15.461
			c0.305,0.97,0.6,1.953,0.897,2.941c2.954,9.829,7,23.29,22.068,28.05c3.167,1,6.493,1.507,9.889,1.507
			c6.068,0,11.822-1.604,16.639-4.641c11.474-7.235,11.755-20.081,11.94-28.582l0.003-0.118c0.087-3.993,0.322-7.949,0.571-12.138
			c0.079-1.331,0.16-2.684,0.235-4.048c0.423,0.011,0.856,0.019,1.304,0.02h0.013h0.055c1.292,0,2.528-0.079,3.724-0.155
			c0.079,1.414,0.162,2.816,0.244,4.196c0.25,4.184,0.485,8.136,0.572,12.126l0.003,0.108c0.184,8.504,0.461,21.355,11.939,28.591
			c4.814,3.036,10.569,4.642,16.64,4.642c3.396,0,6.722-0.507,9.887-1.506c15.072-4.763,19.117-18.226,22.07-28.056
			c0.297-0.986,0.592-1.97,0.896-2.938c1.615-5.141,3.283-10.373,4.896-15.434c6.344-19.907,12.904-40.493,18.112-61.255
			c2.063-8.224,4.576-20.391,3.478-33.584c5.874,0.497,12.17,1.206,19.321,2.169c2.182,0.295,5.088,0.633,8.2,0.633
			c7.638,0,13.938-2.156,18.724-6.408c4.342-3.858,6.73-8.93,6.909-14.665c0.356-11.456-8.213-21.004-10.848-23.658
			c-6.395-6.441-13.999-10.474-21.354-14.373c-3.978-2.109-7.734-4.101-11.026-6.344c-1.432-0.976-2.861-1.9-4.243-2.794
			c-3.261-2.109-6.34-4.101-8.854-6.372c-17.052-15.403-22.94-35.79-24.879-50.18c-0.78-5.793-2.194-11.606-4.088-16.812
			c-1.975-5.422-4.796-10.456-8.387-14.963c-3.547-4.451-7.686-8.337-12.302-11.55c-5.121-3.568-10.974-6.265-17.393-8.016
			C158.787,0.929,151.857,0,144.91,0L144.91,0z"/>
	</g>
</g>
<g id="Layer_7">
	<g>
		<path fill="#85D10D" d="M144.444,10.002c-6.183,0.042-12.361,0.917-18.457,2.581c-4.955,1.352-9.727,3.344-14.02,6.183
			c-3.8,2.513-7.208,5.625-10.069,9.171c-2.83,3.508-5.071,7.447-6.694,11.65c-1.755,4.542-2.792,9.312-3.733,14.077
			c-0.116,0.588-0.268,1.182-0.348,1.776c-2.871,21.322-11.883,41.631-28.085,56.265c-4.312,3.896-9.385,6.75-14.17,10.01
			c-9.933,6.768-22.36,10.882-30.916,19.499c-5.722,5.762-12.107,16.944-4.392,23.801c5.183,4.606,12.527,4.207,18.948,3.341
			c9.053-1.221,18.058-2.216,27.177-2.753c6.022-0.354,4.23,4.643,3.725,8.625c-1.422,11.218,0.201,22.147,2.928,33.018
			c6.45,25.71,14.911,50.854,22.85,76.128c3.075,9.788,5.258,20.922,16.437,24.453c5.897,1.862,12.917,1.261,18.184-2.059
			c6.963-4.391,7.115-13.049,7.277-20.459c0.152-6.958,0.737-13.872,1.035-20.818c0.27-6.293,6.07-5.142,11.099-5.129
			c0.396,0.001,0.806-0.012,1.223-0.028V10.002z"/>
	</g>
</g>
<g id="Layer_4">
	
		<ellipse transform="matrix(0.7071 0.7071 -0.7071 0.7071 75.286 -110.1987)" fill="#CDFC80" cx="170.663" cy="35.778" rx="16.691" ry="9.119"/>
</g>
<g id="Layer_5">
	<g>
		<path d="M185.85,108.619c-9.115,0-17.104-2.727-22.492-7.678c-5.792-5.322-9.683-13.081-11.894-23.72
			c-0.031-0.147-2.302-13.519-2.579-17.007c-0.183,0.001-1.955-0.001-1.955-0.001c-0.634,0-1.256,0.004-1.856,0.026
			c-0.047,0.003-0.474,0.008-0.477,0.008c-0.668-0.028-1.36-0.033-2.066-0.033c0,0-1.548,0.001-1.743,0
			c-0.277,3.489-2.548,16.86-2.579,17.008c-2.213,10.641-6.104,18.4-11.895,23.72c-5.389,4.951-13.377,7.678-22.493,7.678
			c-2.17,0-4.343-0.162-6.458-0.482c-8.563-1.294-15.551-5.826-20.207-13.103c-4.314-6.744-6.182-15.267-5.257-24
			c1.168-11.027,5.399-17.741,13.316-21.129c3.974-1.702,8.74-2.632,14.572-2.844c4.114-0.15,29.014-0.437,52.266-0.437
			c16.885,0,29.967,0.151,37.833,0.437c5.829,0.212,10.596,1.142,14.571,2.844c7.915,3.389,12.146,10.103,13.315,21.129
			c0.925,8.733-0.942,17.257-5.257,24c-4.656,7.277-11.645,11.808-20.207,13.103C190.193,108.457,188.021,108.619,185.85,108.619
			C185.85,108.619,185.851,108.619,185.85,108.619z M182.869,54.607c-4.334,0-8.456,0.287-12.093,0.54l-0.495,0.034
			c-3.079,0.21-6.57,0.448-8.983,2.333c-2.912,2.274-2.811,5.934-2.713,9.473c0.018,0.62,0.034,1.234,0.035,1.832
			c0.029,22.574,12.745,29.205,20.321,31.149c2.649,0.68,5.37,1.024,8.086,1.024c8.753,0,15.99-3.516,19.856-9.646
			c3.593-5.699,5.292-12.813,4.662-19.518C210.456,60.24,201.075,54.607,182.869,54.607z M106.803,54.607
			c-18.207,0-27.587,5.633-28.676,17.221c-0.63,6.708,1.069,13.821,4.663,19.518c3.865,6.13,11.102,9.646,19.855,9.646
			c2.716,0,5.437-0.344,8.086-1.024c7.576-1.944,20.291-8.575,20.32-31.149c0.001-0.597,0.018-1.209,0.035-1.828
			c0.099-3.541,0.201-7.202-2.713-9.477c-2.413-1.884-5.904-2.123-8.984-2.333l-0.443-0.03
			C115.257,54.894,111.137,54.607,106.803,54.607z"/>
		<path d="M152.053,47.124c14.586,0,28.857,0.111,37.814,0.437c5.104,0.186,10.037,0.939,14.393,2.804
			c8.907,3.813,12.054,11.648,13.016,20.723c1.809,17.086-7.278,33.87-25.042,36.556c-2.062,0.312-4.21,0.477-6.384,0.477
			c-8.008,0-16.37-2.232-22.154-7.546c-6.634-6.096-9.949-14.828-11.742-23.454c-0.304-1.46-2.806-17.407-2.67-17.409
			c-0.316,0.003-0.632,0.005-0.946,0.005c-0.473,0-0.942-0.002-1.406-0.002c-0.641,0-1.269,0.004-1.876,0.027
			c-0.049,0.003-0.103,0.005-0.154,0.005c-0.022,0-0.044,0-0.065-0.001c-0.07,0.003-0.147,0-0.217,0.004
			c-0.675-0.029-1.375-0.034-2.089-0.034c-0.382,0-0.769,0.001-1.156,0.001c-0.327,0-0.655-0.001-0.984-0.005
			c0.135,0.002-2.366,15.949-2.67,17.409c-1.794,8.625-5.107,17.357-11.744,23.454c-5.784,5.314-14.147,7.546-22.155,7.546
			c-2.173,0-4.321-0.165-6.383-0.477c-17.764-2.686-26.851-19.47-25.042-36.556c0.961-9.074,4.108-16.91,13.016-20.723
			c4.354-1.865,9.291-2.619,14.393-2.804C103.723,47.417,128.31,47.124,152.053,47.124 M187.027,101.492
			c8.05,0,15.957-3.027,20.279-9.879c3.642-5.776,5.372-13.076,4.737-19.831c-1.407-14.96-15.934-17.674-29.175-17.674
			c-4.373,0-8.605,0.296-12.179,0.544c-3.207,0.223-7.045,0.395-9.7,2.468c-3.643,2.844-2.875,7.624-2.87,11.7
			c0.019,14.289,5.601,27.76,20.697,31.633C181.479,101.135,184.261,101.492,187.027,101.492 M102.645,101.492
			c2.766,0,5.55-0.357,8.21-1.04c15.097-3.873,20.678-17.344,20.696-31.633c0.006-4.076,0.772-8.856-2.87-11.7
			c-2.654-2.073-6.492-2.245-9.7-2.468c-3.574-0.249-7.805-0.544-12.178-0.544c-13.241,0-27.768,2.715-29.174,17.674
			c-0.635,6.755,1.094,14.055,4.737,19.831C86.687,98.465,94.594,101.492,102.645,101.492 M152.053,46.124
			c-23.257,0-48.167,0.288-52.284,0.437c-5.895,0.214-10.719,1.158-14.75,2.884c-8.101,3.468-12.428,10.311-13.617,21.537
			c-0.937,8.846,0.958,17.483,5.333,24.322c4.736,7.402,11.844,12.011,20.554,13.328c2.139,0.324,4.337,0.488,6.532,0.488
			c9.241,0,17.35-2.774,22.832-7.81c5.871-5.393,9.811-13.239,12.046-23.986c0.162-0.781,0.89-5.315,1.5-9.248
			c0.63-4.062,0.96-6.194,1.096-7.36c0.026,0,0.053,0,0.079,0l0.584-0.001l0.572,0c0.662,0,1.368,0.004,2.046,0.033
			c0.015,0,0.028,0.001,0.043,0.001c0.017,0,0.033,0,0.05-0.001l0.068-0.001c0.037,0,0.074-0.001,0.11-0.002l0.054,0.001
			c0.072,0,0.147-0.003,0.217-0.007c0.605-0.022,1.258-0.025,1.813-0.025l0.693,0.001l0.713,0.001c0.014,0,0.027,0,0.04,0
			c0.136,1.166,0.467,3.298,1.097,7.361c0.609,3.931,1.338,8.465,1.5,9.247c2.234,10.745,6.174,18.591,12.045,23.986
			c5.482,5.036,13.591,7.81,22.831,7.81c2.195,0,4.394-0.164,6.533-0.488c8.71-1.317,15.817-5.926,20.554-13.328
			c4.376-6.838,6.27-15.477,5.333-24.322c-1.189-11.226-5.517-18.069-13.616-21.537c-4.032-1.727-8.857-2.67-14.75-2.884
			C182.032,46.274,168.943,46.124,152.053,46.124L152.053,46.124z M187.027,100.492c-2.674,0-5.353-0.339-7.962-1.008
			c-7.437-1.908-19.916-8.429-19.945-30.666c-0.001-0.603-0.018-1.22-0.035-1.845c-0.099-3.573-0.192-6.947,2.521-9.065
			c2.293-1.79,5.702-2.022,8.71-2.228l0.444-0.031l0.051-0.003c3.629-0.252,7.741-0.539,12.059-0.539
			c18.148,0,27.104,5.328,28.18,16.768c0.619,6.597-1.053,13.597-4.588,19.204C202.688,97.061,195.604,100.492,187.027,100.492
			L187.027,100.492z M102.645,100.492c-8.578,0-15.661-3.431-19.433-9.413c-3.536-5.605-5.208-12.604-4.587-19.204
			c1.075-11.439,10.029-16.767,28.178-16.768c4.317,0,8.425,0.286,12.05,0.538l0.058,0.004l0.444,0.031
			c3.009,0.205,6.418,0.438,8.71,2.228c2.715,2.119,2.621,5.495,2.521,9.069c-0.017,0.623-0.034,1.24-0.035,1.841
			c-0.012,9.545-2.62,26.221-19.945,30.666C107.997,100.153,105.318,100.492,102.645,100.492L102.645,100.492z"/>
	</g>
</g>
</svg>
