<?xml version="1.0" encoding="utf-8"?>
<!-- Generator: Adobe Illustrator 16.0.4, SVG Export Plug-In . SVG Version: 6.00 Build 0)  -->
<!DOCTYPE svg PUBLIC "-//W3C//DTD SVG 1.1//EN" "http://www.w3.org/Graphics/SVG/1.1/DTD/svg11.dtd">
<svg version="1.1" xmlns="http://www.w3.org/2000/svg" xmlns:xlink="http://www.w3.org/1999/xlink" x="0px" y="0px"
	 width="268.889px" height="300px" viewBox="0 0 268.889 300" enable-background="new 0 0 268.889 300" xml:space="preserve">
<g id="Layer_1" display="none">
	
		<image display="inline" overflow="visible" width="282" height="282" xlink:href="flubber_ico.jpg"  transform="matrix(0.936 0 0 0.9912 0.4458 15.498)">
	</image>
</g>
<g id="Layer_3">
</g>
<g id="Layer_2">
	<path fill="#659E0A" d="M265.328,156.146c-5.184,4.605-12.528,4.207-18.947,3.341c-9.053-1.22-18.06-2.216-27.179-2.753
		c-6.021-0.354-4.229,4.643-3.726,8.625c1.423,11.218-0.2,22.146-2.929,33.02c-6.449,25.708-14.909,50.852-22.849,76.126
		c-3.074,9.788-5.258,20.922-16.436,24.454c-5.896,1.861-12.919,1.261-18.185-2.06c-6.964-4.39-7.116-13.048-7.276-20.458
		c-0.152-6.96-0.739-13.874-1.037-20.821c-0.117-2.721,0.09-3.949-2.473-4.77c-1.061-0.341-9.848,0.641-9.848,0.655
		c0,0,0-4.975,0-13.522c0-52.24,0.002-237.983,0.012-237.982c34.659,3.54,49.709,19.839,53.309,46.57
		c2.871,21.323,11.884,41.631,28.085,56.265c4.312,3.896,9.386,6.75,14.17,10.01c9.934,6.768,22.36,10.882,30.915,19.499
		C266.657,138.106,273.042,149.289,265.328,156.146z M134.433,0C99.774,3.54,84.724,19.839,81.125,46.57
		c-2.871,21.322-11.883,41.631-28.085,56.265c-4.312,3.896-9.385,6.75-14.17,10.01c-9.933,6.768-22.36,10.882-30.916,19.499
		c-5.722,5.762-12.107,16.944-4.392,23.801c5.183,4.606,12.527,4.207,18.948,3.341c9.053-1.221,18.058-2.216,27.177-2.753
		c6.022-0.354,4.23,4.643,3.725,8.625c-1.422,11.218,0.201,22.147,2.928,33.018c6.45,25.71,14.911,50.854,22.85,76.128
		c3.075,9.788,5.258,20.922,16.437,24.453c5.897,1.862,12.917,1.261,18.184-2.059c6.963-4.391,7.115-13.049,7.277-20.459
		c0.152-6.959,0.737-13.873,1.035-20.82c0.117-2.721-0.089-3.949,2.473-4.77c1.062-0.342,9.849,0.641,9.849,0.655
		c0,0,0-4.975,0-13.522C134.445,185.742,134.443-0.001,134.433,0z"/>
</g>
<g id="Layer_2_copy">
	<path fill="#85D10D" d="M134.433,0C99.774,3.54,84.724,19.839,81.125,46.57c-2.871,21.322-11.883,41.631-28.085,56.265
		c-4.312,3.896-9.385,6.75-14.17,10.01c-9.933,6.768-22.36,10.882-30.916,19.499c-5.722,5.762-12.107,16.944-4.392,23.801
		c5.183,4.606,12.527,4.207,18.948,3.341c9.053-1.221,18.058-2.216,27.177-2.753c6.022-0.354,4.23,4.643,3.725,8.625
		c-1.422,11.218,0.201,22.147,2.928,33.018c6.45,25.71,14.911,50.854,22.85,76.128c3.075,9.788,5.258,20.922,16.437,24.453
		c5.897,1.862,12.917,1.261,18.184-2.059c6.963-4.391,7.115-13.049,7.277-20.459c0.152-6.959,0.737-13.873,1.035-20.82
		c0.117-2.721-0.089-3.949,2.473-4.77c1.062-0.342,9.849,0.641,9.849,0.655c0,0,0-4.975,0-13.522
		C134.445,185.742,134.443-0.001,134.433,0z"/>
</g>
<g id="Layer_4">
	
		<ellipse transform="matrix(0.7071 0.7071 -0.7071 0.7071 66.086 -105.7255)" fill="#CDFC80" cx="160.663" cy="26.909" rx="16.691" ry="9.119"/>
</g>
<g id="Layer_5">
	<g>
		<path d="M175.85,99.75c-9.115,0-17.104-2.727-22.492-7.678c-5.792-5.322-9.683-13.081-11.894-23.72
			c-0.031-0.147-2.302-13.519-2.579-17.007c-0.183,0.001-1.955-0.001-1.955-0.001c-0.634,0-1.256,0.004-1.856,0.026
			c-0.047,0.003-0.474,0.008-0.477,0.008c-0.668-0.028-1.36-0.033-2.066-0.033c0,0-1.548,0.001-1.743,0
			c-0.277,3.489-2.548,16.86-2.579,17.008c-2.213,10.641-6.104,18.4-11.895,23.72c-5.389,4.951-13.377,7.678-22.493,7.678
			c-2.17,0-4.343-0.162-6.458-0.482c-8.563-1.294-15.551-5.826-20.207-13.103c-4.314-6.744-6.182-15.267-5.257-24
			c1.168-11.027,5.399-17.741,13.316-21.129c3.974-1.702,8.74-2.632,14.572-2.844c4.114-0.15,29.014-0.437,52.266-0.437
			c16.885,0,29.967,0.151,37.833,0.437c5.829,0.212,10.596,1.142,14.571,2.844c7.915,3.389,12.146,10.103,13.315,21.129
			c0.925,8.733-0.942,17.257-5.257,24c-4.656,7.277-11.645,11.808-20.207,13.103C180.194,99.588,178.021,99.75,175.85,99.75
			C175.85,99.75,175.851,99.75,175.85,99.75z M172.87,45.739c-4.334,0-8.456,0.287-12.093,0.54l-0.495,0.034
			c-3.079,0.21-6.57,0.448-8.983,2.333c-2.912,2.274-2.811,5.934-2.713,9.473c0.018,0.62,0.034,1.234,0.035,1.832
			c0.029,22.574,12.745,29.205,20.321,31.149c2.649,0.68,5.37,1.024,8.086,1.024c8.753,0,15.99-3.516,19.856-9.646
			c3.593-5.699,5.292-12.813,4.662-19.518C200.457,51.372,191.076,45.739,172.87,45.739z M96.803,45.739
			c-18.207,0-27.587,5.633-28.676,17.221c-0.63,6.708,1.069,13.821,4.663,19.518c3.865,6.13,11.102,9.646,19.855,9.646
			c2.716,0,5.437-0.344,8.086-1.024c7.576-1.944,20.291-8.575,20.32-31.149c0.001-0.597,0.018-1.209,0.035-1.828
			c0.099-3.541,0.201-7.202-2.713-9.477c-2.413-1.884-5.904-2.123-8.984-2.333l-0.443-0.03
			C105.257,46.025,101.137,45.739,96.803,45.739z"/>
		<path d="M142.053,38.255c14.586,0,28.857,0.111,37.814,0.437c5.104,0.186,10.037,0.939,14.393,2.804
			c8.907,3.813,12.054,11.648,13.016,20.723c1.809,17.086-7.278,33.87-25.042,36.556c-2.062,0.312-4.21,0.477-6.384,0.477
			c-8.008,0-16.37-2.232-22.154-7.546c-6.634-6.096-9.949-14.828-11.742-23.454c-0.304-1.46-2.806-17.407-2.67-17.409
			c-0.316,0.003-0.632,0.005-0.946,0.005c-0.473,0-0.942-0.002-1.406-0.002c-0.641,0-1.269,0.004-1.876,0.027
			c-0.049,0.003-0.103,0.005-0.154,0.005c-0.022,0-0.044,0-0.065-0.001c-0.07,0.003-0.147,0-0.217,0.004
			c-0.675-0.029-1.375-0.034-2.089-0.034c-0.382,0-0.769,0.001-1.156,0.001c-0.327,0-0.655-0.001-0.984-0.005
			c0.135,0.002-2.366,15.949-2.67,17.409c-1.794,8.625-5.107,17.357-11.744,23.454c-5.784,5.314-14.147,7.546-22.155,7.546
			c-2.173,0-4.321-0.165-6.383-0.477c-17.764-2.686-26.851-19.47-25.042-36.556c0.961-9.074,4.108-16.91,13.016-20.723
			c4.354-1.865,9.291-2.619,14.393-2.804C93.724,38.549,118.31,38.255,142.053,38.255 M177.028,92.623
			c8.05,0,15.957-3.027,20.279-9.879c3.642-5.776,5.372-13.076,4.737-19.831c-1.407-14.96-15.934-17.674-29.175-17.674
			c-4.373,0-8.605,0.296-12.179,0.544c-3.207,0.223-7.045,0.395-9.7,2.468c-3.643,2.844-2.875,7.624-2.87,11.7
			c0.019,14.289,5.601,27.76,20.697,31.633C171.479,92.266,174.261,92.623,177.028,92.623 M92.645,92.623
			c2.766,0,5.55-0.357,8.21-1.04c15.097-3.873,20.678-17.344,20.696-31.633c0.006-4.076,0.772-8.856-2.87-11.7
			c-2.654-2.073-6.492-2.245-9.7-2.468c-3.574-0.249-7.805-0.544-12.178-0.544c-13.241,0-27.768,2.715-29.174,17.674
			c-0.635,6.755,1.094,14.055,4.737,19.831C76.688,89.597,84.595,92.623,92.645,92.623 M142.053,37.255
			c-23.257,0-48.167,0.288-52.284,0.437c-5.895,0.214-10.719,1.158-14.75,2.884c-8.101,3.468-12.428,10.311-13.617,21.537
			c-0.937,8.846,0.958,17.483,5.333,24.322c4.736,7.402,11.844,12.011,20.554,13.328c2.139,0.324,4.337,0.488,6.532,0.488
			c9.241,0,17.35-2.774,22.832-7.81c5.871-5.393,9.811-13.239,12.046-23.986c0.162-0.781,0.89-5.315,1.5-9.248
			c0.63-4.062,0.96-6.194,1.096-7.36c0.026,0,0.053,0,0.079,0l0.584-0.001l0.572,0c0.662,0,1.368,0.004,2.046,0.033
			c0.015,0,0.028,0.001,0.043,0.001c0.017,0,0.033,0,0.05-0.001l0.068-0.001c0.037,0,0.074-0.001,0.11-0.002l0.054,0.001
			c0.072,0,0.147-0.003,0.217-0.007c0.605-0.022,1.258-0.025,1.813-0.025l0.693,0.001l0.713,0.001c0.014,0,0.027,0,0.04,0
			c0.136,1.166,0.467,3.298,1.097,7.361c0.609,3.931,1.338,8.465,1.5,9.247c2.234,10.745,6.174,18.591,12.045,23.986
			c5.482,5.036,13.591,7.81,22.831,7.81c2.195,0,4.394-0.164,6.533-0.488c8.71-1.317,15.817-5.926,20.554-13.328
			c4.376-6.838,6.27-15.477,5.333-24.322c-1.189-11.226-5.517-18.069-13.616-21.537c-4.032-1.727-8.857-2.67-14.75-2.884
			C172.033,37.406,158.944,37.255,142.053,37.255L142.053,37.255z M177.028,91.623c-2.674,0-5.353-0.339-7.962-1.008
			c-7.437-1.908-19.916-8.429-19.945-30.666c-0.001-0.603-0.018-1.22-0.035-1.845c-0.099-3.573-0.192-6.947,2.521-9.065
			c2.293-1.79,5.702-2.022,8.71-2.228l0.444-0.031l0.051-0.003c3.629-0.252,7.741-0.539,12.059-0.539
			c18.148,0,27.104,5.328,28.18,16.768c0.619,6.597-1.053,13.597-4.588,19.204C192.688,88.192,185.605,91.623,177.028,91.623
			L177.028,91.623z M92.645,91.623c-8.578,0-15.661-3.431-19.433-9.413c-3.536-5.605-5.208-12.604-4.587-19.204
			C69.7,51.567,78.654,46.239,96.803,46.239c4.317,0,8.425,0.286,12.05,0.538l0.058,0.004l0.444,0.031
			c3.009,0.205,6.418,0.438,8.71,2.228c2.715,2.119,2.621,5.495,2.521,9.069c-0.017,0.623-0.034,1.24-0.035,1.841
			c-0.012,9.545-2.62,26.221-19.945,30.666C97.998,91.284,95.319,91.623,92.645,91.623L92.645,91.623z"/>
	</g>
</g>
</svg>
