<?xml version="1.0" encoding="utf-8"?>
<!DOCTYPE svg PUBLIC "-//W3C//DTD SVG 1.1//EN" "http://www.w3.org/Graphics/SVG/1.1/DTD/svg11.dtd">
<svg version="1.1" xmlns="http://www.w3.org/2000/svg" xmlns:xlink="http://www.w3.org/1999/xlink" x="0px" y="0px"
	 width="200px" height="220px" viewBox="0 0 200 220" enable-background="new 0 0 200 220" xml:space="preserve">
	<g>
		<path fill="#659E0A" d="M121.343,215c-3.742,0-7.28-0.983-10.233-2.846c-6.91-4.355-7.084-12.407-7.2-17.735
			c-0.061-2.776-0.227-5.561-0.387-8.253c-0.089-1.493-0.178-2.986-0.251-4.482c-0.513,0.009-1.086,0.046-1.688,0.084
			c-0.781,0.051-1.588,0.103-2.407,0.103c-0.535-0.001-1.041-0.017-1.545-0.033c-0.326-0.01-0.651-0.021-0.972-0.025
			c-0.075,1.477-0.16,2.911-0.245,4.346c-0.16,2.694-0.326,5.481-0.385,8.186c-0.118,5.405-0.294,13.455-7.202,17.812
			C85.873,214.016,82.334,215,78.595,215c-2.1,0-4.156-0.313-6.109-0.931c-9.23-2.915-11.788-11.428-13.656-17.645
			c-0.201-0.667-0.4-1.332-0.606-1.987c-1.083-3.449-2.182-6.895-3.28-10.341c-4.237-13.295-8.618-27.044-12.091-40.885
			c-2.342-9.336-2.982-16.711-2.074-23.909c-4.548,0.337-9.405,0.861-15.047,1.622c-1.41,0.19-3.282,0.409-5.264,0.409
			c-4.75,0-8.481-1.263-11.405-3.862c-2.548-2.265-3.951-5.239-4.056-8.602c-0.218-6.99,5.125-12.932,6.768-14.586
			c4.099-4.128,9.072-6.765,13.881-9.315c2.704-1.434,5.259-2.789,7.54-4.343c0.924-0.629,1.864-1.238,2.803-1.845
			c2.242-1.45,4.359-2.819,6.143-4.431c11.792-10.65,15.856-24.699,17.191-34.609c0.054-0.403,0.136-0.804,0.222-1.203l0.062-0.292
			c0.616-3.123,1.388-6.754,2.738-10.248c1.29-3.339,3.057-6.412,5.252-9.133c2.253-2.793,4.902-5.205,7.872-7.169
			c3.137-2.075,6.779-3.687,10.823-4.79C90.931,5.641,95.635,5,100.281,5c4.499,0,8.986,0.602,13.337,1.789
			c4.11,1.122,7.851,2.845,11.119,5.122c2.953,2.055,5.602,4.543,7.874,7.394c2.29,2.874,4.088,6.083,5.346,9.538
			c1.227,3.371,2.143,7.139,2.649,10.897c1.334,9.911,5.399,23.959,17.19,34.61c1.785,1.613,3.903,2.983,6.146,4.433
			c0.938,0.607,1.877,1.215,2.8,1.844c2.281,1.554,4.836,2.908,7.54,4.342c4.81,2.55,9.782,5.187,13.881,9.315
			c1.643,1.654,6.986,7.595,6.769,14.586c-0.104,3.362-1.507,6.336-4.055,8.602c-2.926,2.599-6.657,3.861-11.407,3.861l0,0
			c-1.982,0-3.854-0.218-5.263-0.408c-5.65-0.761-10.509-1.286-15.047-1.622c0.907,7.196,0.268,14.572-2.075,23.91
			c-3.473,13.839-7.853,27.586-12.089,40.881c-1.099,3.446-2.197,6.893-3.28,10.343c-0.206,0.656-0.406,1.321-0.606,1.988
			c-1.868,6.216-4.426,14.729-13.657,17.646C125.498,214.688,123.443,215,121.343,215z"/>
		<path fill="#FFFFFF" d="M100.281,10c4.022,0,8.047,0.528,12.021,1.613c3.416,0.932,6.667,2.374,9.576,4.4
			c2.566,1.786,4.874,3.963,6.822,6.407c1.951,2.449,3.486,5.189,4.558,8.132c1.141,3.136,1.946,6.548,2.393,9.855
			c1.921,14.269,7.952,27.859,18.794,37.652c2.886,2.607,6.28,4.518,9.482,6.699c6.647,4.529,14.963,7.282,20.688,13.048
			c3.829,3.856,8.102,11.339,2.939,15.928c-2.27,2.016-5.156,2.599-8.085,2.599c-1.549,0-3.108-0.163-4.594-0.363
			c-6.059-0.816-12.086-1.483-18.188-1.842c-0.136-0.008-0.266-0.012-0.391-0.012c-3.559,0-2.428,3.208-2.102,5.784
			c0.952,7.507-0.135,14.82-1.96,22.096c-4.316,17.204-9.978,34.03-15.29,50.943c-2.058,6.55-3.519,14.001-10.999,16.364
			c-1.463,0.462-3.03,0.697-4.602,0.697c-2.667,0-5.35-0.678-7.567-2.075c-4.66-2.938-4.762-8.731-4.869-13.69
			c-0.102-4.657-0.495-9.284-0.694-13.934c-0.131-3.058-2.256-3.619-4.723-3.619c-1.43,0-2.975,0.188-4.313,0.188
			c-0.009,0-0.018,0-0.026,0c-0.912-0.002-1.861-0.061-2.765-0.061c-2.432,0-4.531,0.422-4.663,3.492
			c-0.199,4.648-0.59,9.275-0.692,13.932c-0.108,4.959-0.21,10.753-4.87,13.691c-2.217,1.397-4.899,2.075-7.566,2.075
			c-1.572,0-3.139-0.235-4.603-0.698c-7.48-2.362-8.941-9.813-10.999-16.363c-5.313-16.913-10.975-33.739-15.291-50.944
			c-1.825-7.274-2.911-14.588-1.959-22.095c0.327-2.575,1.458-5.784-2.103-5.784c-0.124,0-0.254,0.004-0.39,0.012
			c-6.103,0.359-12.129,1.025-18.187,1.842c-1.487,0.201-3.047,0.364-4.596,0.364c-2.928,0-5.815-0.583-8.083-2.599
			c-5.163-4.589-0.89-12.072,2.938-15.928c5.726-5.766,14.042-8.52,20.688-13.048c3.202-2.181,6.597-4.091,9.482-6.699
			c10.842-9.793,16.873-23.383,18.794-37.652c0.054-0.397,0.155-0.795,0.233-1.188c0.629-3.189,1.324-6.38,2.498-9.42
			c1.086-2.812,2.586-5.448,4.479-7.796c1.914-2.373,4.195-4.456,6.738-6.137c2.873-1.9,6.065-3.232,9.381-4.137
			C91.799,10.587,96.039,10,100.281,10 M100.281,0C95.19,0,90.043,0.701,84.983,2.082c-4.556,1.243-8.683,3.075-12.264,5.443
			c-3.398,2.247-6.429,5.006-9.005,8.199c-2.521,3.126-4.548,6.648-6.024,10.471c-1.495,3.869-2.322,7.751-2.98,11.087l-0.042,0.199
			c-0.08,0.369-0.201,0.926-0.29,1.587c-1.223,9.086-4.919,21.935-15.587,31.57c-1.486,1.343-3.439,2.606-5.507,3.943
			c-0.94,0.608-1.913,1.237-2.903,1.912c-2.052,1.399-4.488,2.69-7.067,4.058c-4.9,2.598-10.453,5.542-15.087,10.209
			c-1.999,2.013-8.498,9.279-8.218,18.266c0.146,4.701,2.182,9.028,5.732,12.183c3.826,3.4,8.78,5.125,14.726,5.125
			c2.279,0,4.368-0.242,5.933-0.454c3.236-0.436,6.206-0.793,9.002-1.08c-0.097,7.753,1.366,14.706,2.601,19.628
			c3.511,13.994,7.917,27.819,12.178,41.188c1.096,3.439,2.191,6.877,3.272,10.319c0.2,0.636,0.394,1.28,0.588,1.929
			c2.066,6.874,5.188,17.262,16.94,20.974c2.439,0.771,5.001,1.162,7.614,1.162c4.685,0,9.144-1.25,12.897-3.614
			c5.018-3.165,7.362-7.719,8.477-12.115c1.114,4.396,3.458,8.951,8.476,12.114c3.752,2.365,8.212,3.615,12.899,3.615
			c2.611,0,5.172-0.391,7.613-1.161c11.753-3.714,14.875-14.102,16.94-20.975c0.195-0.648,0.389-1.293,0.588-1.929
			c1.082-3.444,2.178-6.884,3.274-10.324c4.26-13.368,8.664-27.19,12.175-41.182c1.235-4.923,2.699-11.876,2.602-19.629
			c2.794,0.287,5.766,0.644,9.005,1.081c1.562,0.21,3.649,0.453,5.929,0.453c5.945,0,10.9-1.723,14.727-5.123
			c3.551-3.157,5.587-7.483,5.732-12.185c0.28-8.987-6.219-16.253-8.218-18.266c-4.633-4.667-10.187-7.611-15.087-10.209
			c-2.578-1.367-5.014-2.659-7.066-4.057c-0.989-0.674-1.961-1.303-2.9-1.91c-2.068-1.338-4.021-2.602-5.508-3.944
			c-10.668-9.636-14.365-22.484-15.588-31.566c-0.555-4.111-1.559-8.239-2.905-11.94c-1.444-3.966-3.507-7.647-6.134-10.944
			c-2.575-3.231-5.579-6.051-8.931-8.384c-3.734-2.602-7.994-4.568-12.656-5.84C110.154,0.661,105.224,0,100.281,0L100.281,0z"/>
	</g>
</g>
<g id="Layer_7">
	<g>
		<path fill="#85D10D" d="M99.969,10.001c-4.138,0.028-8.272,0.614-12.352,1.728c-3.316,0.905-6.509,2.237-9.381,4.137
			c-2.543,1.682-4.824,3.765-6.738,6.137c-1.894,2.348-3.393,4.983-4.479,7.796c-1.174,3.04-1.869,6.231-2.498,9.42
			c-0.078,0.394-0.179,0.791-0.233,1.188c-1.921,14.269-7.952,27.859-18.794,37.652c-2.886,2.607-6.281,4.518-9.482,6.699
			c-6.647,4.529-14.963,7.282-20.688,13.048c-3.829,3.856-8.102,11.339-2.938,15.928c3.468,3.083,8.383,2.815,12.679,2.235
			c6.058-0.817,12.084-1.483,18.187-1.842c4.03-0.237,2.831,3.107,2.493,5.772c-0.952,7.507,0.135,14.821,1.959,22.095
			c4.316,17.205,9.978,34.031,15.291,50.944c2.058,6.55,3.519,14.001,10.999,16.363c3.946,1.247,8.644,0.844,12.168-1.377
			c4.66-2.938,4.762-8.732,4.87-13.691c0.102-4.656,0.493-9.283,0.692-13.932c0.181-4.211,4.062-3.44,7.427-3.432
			c0.265,0.001,0.539-0.008,0.818-0.02V10.001z"/>
	</g>
</g>
<g id="Layer_4">

		<ellipse transform="matrix(0.7071 0.7071 -0.7071 0.7071 53.688 -75.1132)" fill="#CDFC80" cx="117.514" cy="27.25" rx="11.169" ry="6.103"/>
</g>
<g id="Layer_5">
	<g>
		<path d="M127.677,76.161c-6.142,0-11.527-1.841-15.165-5.182c-3.902-3.585-6.521-8.807-8.009-15.961
			c-0.02-0.096-1.497-8.541-1.705-11.25l-1.168,0c-0.422,0-0.836,0.003-1.236,0.018l-0.119,0.004l-0.114-0.5l0.004,0.5
			c-0.007,0-0.102,0.001-0.102,0.001c-0.447-0.019-0.91-0.022-1.381-0.022l-1.021,0c-0.208,2.708-1.685,11.154-1.705,11.25
			c-1.488,7.156-4.108,12.377-8.009,15.961c-3.637,3.342-9.023,5.182-15.165,5.182c-1.46,0-2.923-0.109-4.346-0.324
			c-9.698-1.467-18.713-10.529-17.18-25.011c0.788-7.444,3.651-11.98,9.01-14.274c2.678-1.147,5.887-1.774,9.811-1.917
			c2.756-0.1,19.426-0.293,34.985-0.293c11.299,0,20.055,0.102,25.319,0.293c3.922,0.142,7.131,0.769,9.81,1.917
			c5.357,2.293,8.221,6.829,9.01,14.274c1.534,14.482-7.481,23.544-17.18,25.01C130.6,76.052,129.138,76.161,127.677,76.161
			C127.678,76.161,127.678,76.161,127.677,76.161z M125.682,40.017c-2.894,0-5.649,0.191-8.081,0.361L117.27,40.4
			c-2.037,0.139-4.346,0.297-5.921,1.526c-1.883,1.47-1.816,3.877-1.752,6.204c0.012,0.417,0.023,0.829,0.023,1.231
			c0.02,14.994,8.451,19.396,13.475,20.684c1.76,0.452,3.566,0.68,5.37,0.68c5.8,0,10.592-2.325,13.147-6.378
			c2.386-3.782,3.514-8.505,3.095-12.957C143.978,43.631,137.933,40.017,125.682,40.017z M74.779,40.017
			c-12.25,0-18.295,3.614-19.025,11.374c-0.418,4.453,0.71,9.176,3.096,12.957c2.556,4.053,7.347,6.378,13.146,6.378
			c1.804,0,3.611-0.229,5.371-0.68c5.023-1.289,13.455-5.69,13.474-20.684c0-0.401,0.012-0.812,0.023-1.228
			c0.065-2.329,0.132-4.736-1.751-6.207c-1.575-1.229-3.884-1.387-5.921-1.526l-0.297-0.02
			C80.428,40.208,77.673,40.017,74.779,40.017z"/>
		<path d="M105.064,34.843c9.76,0,19.308,0.075,25.301,0.292c3.415,0.124,6.717,0.628,9.631,1.876
			c5.961,2.552,8.066,7.795,8.71,13.867c1.211,11.434-4.87,22.666-16.758,24.463c-1.38,0.208-2.816,0.319-4.271,0.319
			c-5.358,0-10.955-1.494-14.826-5.05c-4.439-4.079-6.658-9.923-7.857-15.695c-0.204-0.977-1.878-11.648-1.787-11.65
			c-0.214,0.002-0.428,0.003-0.642,0.003c-0.314,0-0.626-0.002-0.935-0.002c-0.428,0-0.848,0.003-1.253,0.018
			c-0.032,0.002-0.067,0.003-0.102,0.003c-0.015,0-0.031,0-0.045-0.001c-0.047,0.002-0.099,0-0.145,0.003
			c-0.453-0.019-0.923-0.022-1.402-0.022c-0.251,0-0.504,0.001-0.759,0.001c-0.222,0-0.446-0.001-0.669-0.003
			c0.09,0.001-1.583,10.673-1.787,11.65c-1.2,5.772-3.417,11.616-7.858,15.695c-3.871,3.557-9.467,5.05-14.826,5.05
			c-1.454,0-2.891-0.11-4.271-0.319c-11.887-1.798-17.968-13.029-16.757-24.463c0.643-6.072,2.749-11.315,8.71-13.867
			c2.914-1.248,6.217-1.752,9.632-1.876C72.719,35.04,89.174,34.843,105.064,34.843 M128.465,71.226
			c5.387,0,10.679-2.025,13.57-6.611c2.438-3.865,3.595-8.75,3.17-13.271c-0.941-10.012-10.662-11.828-19.523-11.827
			c-2.925,0-5.759,0.198-8.149,0.364c-2.146,0.149-4.714,0.264-6.491,1.651c-2.438,1.903-1.924,5.102-1.921,7.83
			c0.013,9.562,3.748,18.576,13.851,21.168C124.751,70.986,126.613,71.226,128.465,71.226 M71.996,71.226
			c1.851,0,3.714-0.239,5.495-0.696c10.103-2.592,13.837-11.606,13.85-21.168c0.004-2.728,0.517-5.926-1.92-7.83
			c-1.776-1.387-4.345-1.502-6.491-1.651c-2.392-0.167-5.224-0.364-8.149-0.364c-8.861,0-18.582,1.816-19.523,11.827
			c-0.425,4.521,0.732,9.406,3.17,13.271C61.318,69.201,66.609,71.226,71.996,71.226 M105.064,33.843
			c-15.565,0-32.244,0.193-35.003,0.293c-3.986,0.145-7.254,0.785-9.989,1.957c-5.543,2.373-8.501,7.038-9.311,14.681
			c-0.635,5.994,0.651,11.85,3.619,16.49c3.222,5.036,8.058,8.171,13.983,9.068c1.448,0.219,2.935,0.33,4.42,0.33
			c6.268,0,11.773-1.887,15.503-5.314c3.981-3.657,6.65-8.965,8.161-16.228c0.114-0.547,0.604-3.605,1.007-6.205
			c0.367-2.366,0.585-3.777,0.694-4.646h0.16l0.375,0c0.464,0,0.92,0.003,1.359,0.021c0.014,0,0.028,0.001,0.042,0.001
			c0.018,0,0.035,0,0.052-0.001l0.085-0.001c0.021,0,0.045,0.001,0.053,0.001c0.055,0,0.112-0.002,0.164-0.005
			c0.368-0.013,0.775-0.016,1.191-0.016l0.46,0.001l0.221,0c0.109,0.869,0.328,2.28,0.695,4.646
			c0.403,2.599,0.893,5.657,1.007,6.205c1.509,7.26,4.178,12.568,8.16,16.227c3.73,3.427,9.236,5.314,15.503,5.314
			c1.485,0,2.973-0.111,4.42-0.33c5.926-0.896,10.762-4.032,13.983-9.068c2.969-4.64,4.254-10.496,3.619-16.49
			c-0.81-7.644-3.769-12.309-9.311-14.681c-2.736-1.172-6.003-1.812-9.988-1.957C125.131,33.944,116.369,33.843,105.064,33.843
			L105.064,33.843z M128.465,70.226c-1.762,0-3.527-0.224-5.246-0.665c-4.884-1.253-13.08-5.543-13.099-20.201
			c0-0.406-0.012-0.823-0.023-1.244c-0.064-2.304-0.124-4.481,1.56-5.796c1.454-1.135,3.682-1.287,5.647-1.421l0.298-0.021
			c2.455-0.171,5.202-0.362,8.08-0.362c11.94,0,17.827,3.47,18.527,10.921c0.409,4.344-0.692,8.953-3.02,12.643
			C138.727,67.986,134.089,70.226,128.465,70.226L128.465,70.226z M71.996,70.226c-5.624,0-10.262-2.24-12.724-6.145
			c-2.328-3.69-3.429-8.298-3.021-12.644c0.7-7.451,6.588-10.921,18.527-10.921c2.876,0,5.622,0.191,8.043,0.359l0.334,0.023
			c1.966,0.134,4.193,0.286,5.647,1.421c1.685,1.315,1.624,3.493,1.56,5.799c-0.012,0.42-0.023,0.836-0.024,1.241
			c-0.019,14.658-8.214,18.948-13.098,20.201C75.523,70.002,73.758,70.226,71.996,70.226L71.996,70.226z"/>
	</g>
</svg>
