<?xml version="1.0" encoding="utf-8"?>
<!DOCTYPE svg PUBLIC "-//W3C//DTD SVG 1.1//EN" "http://www.w3.org/Graphics/SVG/1.1/DTD/svg11.dtd">
<svg version="1.1" xmlns="http://www.w3.org/2000/svg" xmlns:xlink="http://www.w3.org/1999/xlink" x="0px" y="0px"
	 width="278.519px" height="126.667px" viewBox="0 0 278.519 126.667" enable-background="new 0 0 278.519 126.667"
	 xml:space="preserve">
<g id="Layer_3">
	<g>
		<g>

				<path fill="#88C540" stroke="#649F42" stroke-width="2" stroke-linecap="round" stroke-linejoin="round" stroke-miterlimit="10" d="
				M60.103,57.528c1.226,4.689-1.474,8.507-6.458,8.539c-2.938,0.024-5.876,0.049-8.814,0.075
				c5.656,13.88,13.622,27.686,23.899,41.417c3.311,4.521,3.667,7.976,0.441,7.688c-3.214-0.288-9.591-4.131-13.673-8.535
				C43.266,93.283,33.784,79.818,27.052,66.316c-1.469,0.016-2.938,0.032-4.406,0.048c-4.823,0.04-10.838-3.433-12.938-7.75
				c-2.108-4.316,0.726-8.149,5.902-8.365c1.558-0.061,3.116-0.12,4.674-0.178c-0.899-2.688-1.69-5.376-2.373-8.066
				c-0.254-0.981-1.419-6.249,1.236-11.943c3.823-8.584,13.337-14.026,25.096-14.887c5.575-0.41,9.962,3.178,10.239,7.924
				c0.272,4.896-3.607,8.917-9.104,9.177c-5.174,0.258-6.776,2.094-7.482,3.868c-1.024,1.938-0.897,4.247-0.745,4.964
				c0.573,2.774,1.238,5.546,1.993,8.315c3.117-0.098,6.233-0.191,9.35-0.28C53.84,48.98,58.86,52.84,60.103,57.528z"/>

				<path fill="#88C540" stroke="#649F42" stroke-width="2" stroke-linecap="round" stroke-linejoin="round" stroke-miterlimit="10" d="
				M80.154,21.933c1.163,29.56,7.517,58.566,19.062,87.018c1.832,4.682,0.859,8.352-2.466,8.174
				c-3.216-0.174-8.166-4.07-10.766-8.682C70.528,80.352,62.022,51.801,60.465,22.789C60.203,18.03,64.6,13.876,70,13.587
				C75.574,13.29,79.963,17.067,80.154,21.933z"/>

				<path fill="#88C540" stroke="#649F42" stroke-width="2" stroke-linecap="round" stroke-linejoin="round" stroke-miterlimit="10" d="
				M149.354,56.904c-0.422,11.541-1.004,22.98-1.746,34.319c-0.046,1.199-0.694,7.041-3.553,13.154
				c-4.402,8.943-10.148,13.832-17.63,13.722c-7.563-0.117-14.83-5.163-21.383-14.076c-4.526-6.097-6.452-11.858-6.75-13.044
				c-3.185-11.196-5.684-22.48-7.496-33.853c-0.816-4.953,2.899-8.946,8.076-9.015c5.183-0.069,9.833,3.857,10.292,8.868
				c1.111,11.483,2.643,22.87,4.596,34.16c0.046,0.298,0.666,2.984,2.257,5.526c1.363,1.944,3.321,4.048,8.089,4.089
				c4.644,0.035,6.22-2.049,7.011-3.988c1.129-2.537,1.17-5.236,1.152-5.535c-0.479-11.344-0.854-22.789-1.127-34.335
				c-0.144-5.034,3.978-9.034,9.158-9.031C145.48,47.87,149.563,51.874,149.354,56.904z"/>

				<path fill="#88C540" stroke="#649F42" stroke-width="2" stroke-linecap="round" stroke-linejoin="round" stroke-miterlimit="10" d="
				M214.849,82.918c-9.63,18.271-31.167,33.944-42.422,34.551c-4.099,0.173-7.249-1.304-9.927-4.164
				c-1.818,2.674-4.261,4.639-6.606,4.69c-3.222,0.072-5.335-3.727-4.776-8.472c3.792-28.86,5.878-58.379,6.26-88.556
				c0.062-4.962,4.452-8.954,9.855-8.832c5.57,0.126,9.965,4.28,9.832,9.196c-0.269,10.357-0.951,20.641-2.048,30.85
				c5.057-2.532,10.893-3.964,16.86-3.861C211.474,48.777,224.281,64.538,214.849,82.918z M198.714,83.109
				c3.685-9.481-1.301-17.198-9.91-17.262c-8.783-0.06-16.708,7.769-18.464,17.489c-1.668,9.571,1.947,17.184,8.76,17.013
				C185.768,100.172,195.062,92.448,198.714,83.109z"/>

				<path fill="#88C540" stroke="#649F42" stroke-width="2" stroke-linecap="round" stroke-linejoin="round" stroke-miterlimit="10" d="
				M266.863,58.614c-2.099,4.318-8.113,7.791-12.937,7.75c-2.892-0.032-6.896,0.34-9.438,2.425c-0.801,0.695-1.379,1.533-1.38,1.533
				c-6.296,12.241-14.733,24.446-25.313,36.612c-3.921,4.432-10.055,8.275-13.372,8.56c-3.226,0.275-3.012-3.205,0.14-7.748
				c11.736-16.538,20.311-33.195,25.722-49.973c1.51-4.756,6.631-8.382,11.816-8.201c2.418,0.08,4.312,0.861,5.501,2.179
				c3.938-1.156,8.36-1.698,13.36-1.503C266.135,50.464,269.031,54.162,266.863,58.614z"/>
		</g>
	</g>
</g>
<g id="Layer_4" display="none">
	<g display="inline">
		<g>
			<path d="M60.054,57.549c1.247,4.686-1.426,8.501-6.41,8.533c-2.938,0.023-5.876,0.049-8.814,0.075
				c5.775,13.864,13.96,27.653,24.554,41.367c3.413,4.517,3.901,7.963,0.722,7.67c-3.167-0.294-9.622-4.136-13.83-8.533
				c-12.609-13.409-22.351-26.853-29.226-40.33c-1.469,0.015-2.938,0.031-4.406,0.047c-4.823,0.04-10.882-3.425-13.017-7.733
				c-2.144-4.306,0.68-8.132,5.862-8.351c1.56-0.062,3.119-0.122,4.679-0.181c-0.909-2.683-1.705-5.366-2.388-8.052
				c-0.255-0.979-1.418-6.236,1.267-11.925c3.87-8.574,13.435-14.025,25.19-14.902c5.575-0.417,9.936,3.164,10.192,7.907
				c0.25,4.893-3.64,8.915-9.142,9.179c-5.179,0.263-6.788,2.098-7.497,3.871c-1.029,1.936-0.903,4.243-0.751,4.959
				c0.574,2.771,1.242,5.54,2.006,8.306c3.12-0.099,6.239-0.193,9.359-0.283C53.758,49.009,58.791,52.864,60.054,57.549z"/>
			<path d="M80.119,21.956c1.075,29.56,7.563,58.555,19.465,86.988c1.888,4.678,1.006,8.343-2.271,8.162
				c-3.17-0.177-8.156-4.073-10.836-8.681C70.543,80.36,61.858,51.827,60.418,22.828c-0.242-4.756,4.179-8.914,9.578-9.208
				C75.571,13.317,79.941,17.091,80.119,21.956z"/>
			<path d="M149.36,56.919c-0.429,11.542-1.025,22.98-1.788,34.315c-0.047,1.199-0.71,7.039-3.561,13.15
				c-4.393,8.938-10.052,13.825-17.426,13.713c-7.454-0.12-14.683-5.166-21.295-14.075c-4.564-6.095-6.541-11.854-6.848-13.038
				c-3.274-11.191-5.833-22.472-7.676-33.841c-0.83-4.952,2.885-8.945,8.067-9.015c5.188-0.07,9.845,3.856,10.312,8.867
				c1.13,11.483,2.699,22.868,4.707,34.154c0.047,0.298,0.68,2.983,2.279,5.524c1.368,1.944,3.326,4.048,8.063,4.088
				c4.614,0.037,6.175-2.047,6.958-3.985c1.119-2.536,1.157-5.234,1.139-5.533c-0.493-11.341-0.877-22.784-1.154-34.332
				c-0.146-5.034,3.979-9.036,9.165-9.032C145.488,47.884,149.573,51.889,149.36,56.919z"/>
			<path d="M214.677,82.917c-9.886,18.253-31.66,33.923-42.713,34.54c-4.043,0.176-7.121-1.297-9.735-4.154
				c-1.828,2.673-4.261,4.637-6.574,4.69c-3.175,0.074-5.234-3.723-4.658-8.466c3.909-28.845,6.04-58.362,6.393-88.552
				c0.058-4.964,4.441-8.957,9.846-8.833c5.568,0.128,9.976,4.286,9.854,9.204c-0.248,10.36-0.928,20.644-2.04,30.853
				c5.063-2.532,10.908-3.962,16.881-3.858C211.544,48.804,224.356,64.558,214.677,82.917z M198.579,83.113
				c3.781-9.474-1.165-17.187-9.775-17.251c-8.786-0.06-16.732,7.768-18.536,17.484c-1.711,9.568,1.812,17.176,8.575,17.001
				C185.461,100.167,194.829,92.446,198.579,83.113z"/>
			<path d="M266.943,58.645c-2.136,4.308-8.194,7.772-13.017,7.733c-2.892-0.032-6.899,0.34-9.466,2.421
				c-0.808,0.694-1.396,1.531-1.396,1.531c-6.439,12.223-15.112,24.408-26.019,36.558c-4.041,4.425-10.25,8.269-13.52,8.558
				c-3.179,0.281-2.837-3.192,0.411-7.73c12.1-16.52,20.9-33.159,26.404-49.918c1.534-4.751,6.668-8.372,11.859-8.188
				c2.421,0.081,4.314,0.862,5.5,2.179c3.946-1.153,8.375-1.691,13.38-1.494C266.258,50.512,269.147,54.204,266.943,58.645z"/>
		</g>
	</g>
</g>
<g id="Layer_2" display="none">
	<g display="inline">
		<g>
			<path fill="none" stroke="#649F42" stroke-width="2" stroke-linecap="round" stroke-linejoin="round" stroke-miterlimit="10" d="
				M60.103,57.528c1.226,4.689-1.474,8.507-6.458,8.539c-2.938,0.024-5.876,0.049-8.814,0.075
				c5.656,13.88,13.622,27.686,23.899,41.417c3.311,4.521,3.667,7.976,0.441,7.688c-3.214-0.288-9.591-4.131-13.673-8.535
				C43.266,93.283,33.784,79.818,27.052,66.316c-1.469,0.016-2.938,0.032-4.406,0.048c-4.823,0.04-10.838-3.433-12.938-7.75
				c-2.108-4.316,0.726-8.149,5.902-8.365c1.558-0.061,3.116-0.12,4.674-0.178c-0.899-2.688-1.69-5.376-2.373-8.066
				c-0.254-0.981-1.419-6.249,1.236-11.943c3.823-8.584,13.337-14.026,25.096-14.887c5.575-0.41,9.962,3.178,10.239,7.924
				c0.272,4.896-3.607,8.917-9.104,9.177c-5.174,0.258-6.776,2.094-7.482,3.868c-1.024,1.938-0.897,4.247-0.745,4.964
				c0.573,2.774,1.238,5.546,1.993,8.315c3.117-0.098,6.233-0.191,9.35-0.28C53.84,48.98,58.86,52.84,60.103,57.528z"/>
			<path fill="none" stroke="#649F42" stroke-width="2" stroke-linecap="round" stroke-linejoin="round" stroke-miterlimit="10" d="
				M80.154,21.933c1.163,29.56,7.517,58.566,19.062,87.018c1.832,4.682,0.859,8.352-2.466,8.174
				c-3.216-0.174-8.166-4.07-10.766-8.682C70.528,80.352,62.022,51.801,60.465,22.789C60.203,18.03,64.6,13.876,70,13.587
				C75.574,13.29,79.963,17.067,80.154,21.933z"/>
			<path fill="none" stroke="#649F42" stroke-width="2" stroke-linecap="round" stroke-linejoin="round" stroke-miterlimit="10" d="
				M149.354,56.904c-0.422,11.541-1.004,22.98-1.746,34.319c-0.046,1.199-0.694,7.041-3.553,13.154
				c-4.402,8.943-10.148,13.832-17.63,13.722c-7.563-0.117-14.83-5.163-21.383-14.076c-4.526-6.097-6.452-11.858-6.75-13.044
				c-3.185-11.196-5.684-22.48-7.496-33.853c-0.816-4.953,2.899-8.946,8.076-9.015c5.183-0.069,9.833,3.857,10.292,8.868
				c1.111,11.483,2.643,22.87,4.596,34.16c0.046,0.298,0.666,2.984,2.257,5.526c1.363,1.944,3.321,4.048,8.089,4.089
				c4.644,0.035,6.22-2.049,7.011-3.988c1.129-2.537,1.17-5.236,1.152-5.535c-0.479-11.344-0.854-22.789-1.127-34.335
				c-0.144-5.034,3.978-9.034,9.158-9.031C145.48,47.87,149.563,51.874,149.354,56.904z"/>
			<path fill="none" stroke="#649F42" stroke-width="2" stroke-linecap="round" stroke-linejoin="round" stroke-miterlimit="10" d="
				M214.849,82.918c-9.63,18.271-31.167,33.944-42.422,34.551c-4.099,0.173-7.249-1.304-9.927-4.164
				c-1.818,2.674-4.261,4.639-6.606,4.69c-3.222,0.072-5.335-3.727-4.776-8.472c3.792-28.86,5.878-58.379,6.26-88.556
				c0.062-4.962,4.452-8.954,9.855-8.832c5.57,0.126,9.965,4.28,9.832,9.196c-0.269,10.357-0.951,20.641-2.048,30.85
				c5.057-2.532,10.893-3.964,16.86-3.861C211.474,48.777,224.281,64.538,214.849,82.918z M198.714,83.109
				c3.685-9.481-1.301-17.198-9.91-17.262c-8.783-0.06-16.708,7.769-18.464,17.489c-1.668,9.571,1.947,17.184,8.76,17.013
				C185.768,100.172,195.062,92.448,198.714,83.109z"/>
			<path fill="none" stroke="#649F42" stroke-width="2" stroke-linecap="round" stroke-linejoin="round" stroke-miterlimit="10" d="
				M266.863,58.614c-2.099,4.318-8.113,7.791-12.937,7.75c-2.892-0.032-6.896,0.34-9.438,2.425c-0.801,0.695-1.379,1.533-1.38,1.533
				c-6.296,12.241-14.733,24.446-25.313,36.612c-3.921,4.432-10.055,8.275-13.372,8.56c-3.226,0.275-3.012-3.205,0.14-7.748
				c11.736-16.538,20.311-33.195,25.722-49.973c1.51-4.756,6.631-8.382,11.816-8.201c2.418,0.08,4.312,0.861,5.501,2.179
				c3.938-1.156,8.36-1.698,13.36-1.503C266.135,50.464,269.031,54.162,266.863,58.614z"/>
		</g>
	</g>
</g>
</svg>
