<?xml version="1.0" encoding="utf-8"?>
<!-- Generator: Adobe Illustrator 16.0.4, SVG Export Plug-In . SVG Version: 6.00 Build 0)  -->
<!DOCTYPE svg PUBLIC "-//W3C//DTD SVG 1.1//EN" "http://www.w3.org/Graphics/SVG/1.1/DTD/svg11.dtd">
<svg version="1.1" xmlns="http://www.w3.org/2000/svg" xmlns:xlink="http://www.w3.org/1999/xlink" x="0px" y="0px"
	 width="278.519px" height="126.667px" viewBox="0 0 278.519 126.667" enable-background="new 0 0 278.519 126.667"
	 xml:space="preserve">
<g id="Layer_3" display="none">
	<g display="inline">
		<g>
			
				<path fill="#88C540" stroke="#649F42" stroke-width="2" stroke-linecap="round" stroke-linejoin="round" stroke-miterlimit="10" d="
				M60.103,57.528c1.226,4.689-1.474,8.507-6.458,8.539c-2.938,0.024-5.876,0.049-8.814,0.075
				c5.656,13.88,13.622,27.686,23.899,41.417c3.311,4.521,3.667,7.976,0.441,7.688c-3.214-0.288-9.591-4.131-13.673-8.535
				C43.266,93.283,33.784,79.818,27.052,66.316c-1.469,0.016-2.938,0.032-4.406,0.048c-4.823,0.04-10.838-3.433-12.938-7.75
				c-2.108-4.316,0.726-8.149,5.902-8.365c1.558-0.061,3.116-0.12,4.674-0.178c-0.899-2.688-1.69-5.376-2.373-8.066
				c-0.254-0.981-1.419-6.249,1.236-11.943c3.823-8.584,13.337-14.026,25.096-14.887c5.575-0.41,9.962,3.178,10.239,7.924
				c0.272,4.896-3.607,8.917-9.104,9.177c-5.174,0.258-6.776,2.094-7.482,3.868c-1.024,1.938-0.897,4.247-0.745,4.964
				c0.573,2.774,1.238,5.546,1.993,8.315c3.117-0.098,6.233-0.191,9.35-0.28C53.84,48.98,58.86,52.84,60.103,57.528z"/>
			
				<path fill="#88C540" stroke="#649F42" stroke-width="2" stroke-linecap="round" stroke-linejoin="round" stroke-miterlimit="10" d="
				M80.154,21.933c1.163,29.56,7.517,58.566,19.062,87.018c1.832,4.682,0.859,8.352-2.466,8.174
				c-3.216-0.174-8.166-4.07-10.766-8.682C70.528,80.352,62.022,51.801,60.465,22.789C60.203,18.03,64.6,13.876,70,13.587
				C75.574,13.29,79.963,17.067,80.154,21.933z"/>
			
				<path fill="#88C540" stroke="#649F42" stroke-width="2" stroke-linecap="round" stroke-linejoin="round" stroke-miterlimit="10" d="
				M149.354,56.904c-0.422,11.541-1.004,22.98-1.746,34.319c-0.046,1.199-0.694,7.041-3.553,13.154
				c-4.402,8.943-10.148,13.832-17.63,13.722c-7.563-0.117-14.83-5.163-21.383-14.076c-4.526-6.097-6.452-11.858-6.75-13.044
				c-3.185-11.196-5.684-22.48-7.496-33.853c-0.816-4.953,2.899-8.946,8.076-9.015c5.183-0.069,9.833,3.857,10.292,8.868
				c1.111,11.483,2.643,22.87,4.596,34.16c0.046,0.298,0.666,2.984,2.257,5.526c1.363,1.944,3.321,4.048,8.089,4.089
				c4.644,0.035,6.22-2.049,7.011-3.988c1.129-2.537,1.17-5.236,1.152-5.535c-0.479-11.344-0.854-22.789-1.127-34.335
				c-0.144-5.034,3.978-9.034,9.158-9.031C145.48,47.87,149.563,51.874,149.354,56.904z"/>
			
				<path fill="#88C540" stroke="#649F42" stroke-width="2" stroke-linecap="round" stroke-linejoin="round" stroke-miterlimit="10" d="
				M214.849,82.918c-9.63,18.271-31.167,33.944-42.422,34.551c-4.099,0.173-7.249-1.304-9.927-4.164
				c-1.818,2.674-4.261,4.639-6.606,4.69c-3.222,0.072-5.335-3.727-4.776-8.472c3.792-28.86,5.878-58.379,6.26-88.556
				c0.062-4.962,4.452-8.954,9.855-8.832c5.57,0.126,9.965,4.28,9.832,9.196c-0.269,10.357-0.951,20.641-2.048,30.85
				c5.057-2.532,10.893-3.964,16.86-3.861C211.474,48.777,224.281,64.538,214.849,82.918z M198.714,83.109
				c3.685-9.481-1.301-17.198-9.91-17.262c-8.783-0.06-16.708,7.769-18.464,17.489c-1.668,9.571,1.947,17.184,8.76,17.013
				C185.768,100.172,195.062,92.448,198.714,83.109z"/>
			
				<path fill="#88C540" stroke="#649F42" stroke-width="2" stroke-linecap="round" stroke-linejoin="round" stroke-miterlimit="10" d="
				M266.863,58.614c-2.099,4.318-8.113,7.791-12.937,7.75c-2.892-0.032-6.896,0.34-9.438,2.425c-0.801,0.695-1.379,1.533-1.38,1.533
				c-6.296,12.241-14.733,24.446-25.313,36.612c-3.921,4.432-10.055,8.275-13.372,8.56c-3.226,0.275-3.012-3.205,0.14-7.748
				c11.736-16.538,20.311-33.195,25.722-49.973c1.51-4.756,6.631-8.382,11.816-8.201c2.418,0.08,4.312,0.861,5.501,2.179
				c3.938-1.156,8.36-1.698,13.36-1.503C266.135,50.464,269.031,54.162,266.863,58.614z"/>
		</g>
	</g>
</g>
<g id="Layer_4">
	<g>
		<g>
			<path fill="#FFFFFF" d="M56.942,53.867c1.127,4.236-1.289,7.685-5.793,7.713c-2.656,0.021-5.312,0.044-7.967,0.068
				c5.221,12.532,12.619,24.997,22.195,37.393c3.085,4.083,3.527,7.199,0.653,6.934c-2.863-0.266-8.699-3.738-12.502-7.714
				C42.13,86.139,33.324,73.987,27.111,61.804c-1.328,0.014-2.656,0.028-3.984,0.043c-4.359,0.036-9.837-3.096-11.766-6.99
				c-1.938-3.892,0.615-7.352,5.299-7.549c1.41-0.056,2.82-0.11,4.23-0.164c-0.822-2.425-1.541-4.851-2.158-7.278
				c-0.231-0.885-1.282-5.637,1.146-10.78c3.498-7.75,12.144-12.677,22.771-13.471c5.039-0.377,8.981,2.86,9.213,7.148
				c0.227,4.422-3.29,8.058-8.264,8.297c-4.681,0.237-6.135,1.897-6.777,3.499c-0.93,1.75-0.816,3.835-0.678,4.483
				c0.518,2.505,1.123,5.008,1.813,7.508c2.82-0.09,5.64-0.175,8.46-0.256C51.252,46.146,55.801,49.631,56.942,53.867z"/>
			<path fill="#FFFFFF" d="M75.08,21.692c0.972,26.72,6.837,52.931,17.595,78.632c1.707,4.229,0.91,7.543-2.053,7.379
				c-2.866-0.16-7.374-3.683-9.796-7.847c-14.401-25.37-22.253-51.162-23.554-77.376c-0.219-4.299,3.777-8.058,8.658-8.323
				C70.97,13.882,74.92,17.294,75.08,21.692z"/>
			<path fill="#FFFFFF" d="M137.672,53.297c-0.388,10.433-0.927,20.772-1.617,31.02c-0.042,1.084-0.641,6.362-3.218,11.887
				c-3.971,8.08-9.086,12.498-15.752,12.396c-6.738-0.108-13.273-4.671-19.25-12.724c-4.126-5.509-5.912-10.715-6.189-11.786
				c-2.96-10.116-5.273-20.313-6.938-30.59c-0.75-4.476,2.607-8.086,7.292-8.149c4.69-0.063,8.899,3.486,9.322,8.016
				c1.021,10.38,2.44,20.671,4.255,30.874c0.042,0.27,0.615,2.697,2.06,4.994c1.236,1.757,3.007,3.658,7.289,3.695
				c4.172,0.033,5.583-1.851,6.291-3.603c1.011-2.293,1.046-4.731,1.029-5.002c-0.445-10.252-0.793-20.596-1.043-31.034
				c-0.132-4.55,3.597-8.168,8.284-8.165C134.171,45.129,137.864,48.75,137.672,53.297z"/>
			<path fill="#FFFFFF" d="M196.715,76.797c-8.938,16.5-28.62,30.664-38.61,31.223c-3.655,0.159-6.438-1.172-8.801-3.755
				c-1.653,2.416-3.852,4.191-5.942,4.239c-2.87,0.066-4.731-3.365-4.211-7.652c3.533-26.075,5.46-52.757,5.779-80.047
				c0.052-4.487,4.015-8.097,8.898-7.984c5.035,0.116,9.018,3.875,8.907,8.32c-0.224,9.365-0.839,18.662-1.844,27.89
				c4.578-2.288,9.861-3.582,15.26-3.488C193.883,45.961,205.465,60.202,196.715,76.797z M182.162,76.975
				c3.419-8.564-1.053-15.536-8.836-15.594c-7.941-0.054-15.126,7.022-16.756,15.805c-1.547,8.649,1.639,15.525,7.751,15.367
				C170.305,92.391,178.773,85.412,182.162,76.975z"/>
			<path fill="#FFFFFF" d="M243.96,54.857c-1.93,3.894-7.406,7.026-11.766,6.99c-2.614-0.029-6.235,0.307-8.557,2.189
				c-0.73,0.627-1.263,1.383-1.263,1.383c-5.82,11.049-13.66,22.064-23.52,33.047c-3.652,4-9.266,7.475-12.221,7.736
				c-2.873,0.254-2.564-2.886,0.372-6.989C197.944,84.281,205.9,69.24,210.875,54.09c1.387-4.294,6.027-7.567,10.721-7.401
				c2.188,0.073,3.898,0.78,4.973,1.97c3.565-1.042,7.569-1.529,12.093-1.351C243.342,47.505,245.953,50.843,243.96,54.857z"/>
		</g>
	</g>
</g>
<g id="Layer_2" display="none">
	<g display="inline">
		<g>
			<path fill="none" stroke="#649F42" stroke-width="2" stroke-linecap="round" stroke-linejoin="round" stroke-miterlimit="10" d="
				M60.103,57.528c1.226,4.689-1.474,8.507-6.458,8.539c-2.938,0.024-5.876,0.049-8.814,0.075
				c5.656,13.88,13.622,27.686,23.899,41.417c3.311,4.521,3.667,7.976,0.441,7.688c-3.214-0.288-9.591-4.131-13.673-8.535
				C43.266,93.283,33.784,79.818,27.052,66.316c-1.469,0.016-2.938,0.032-4.406,0.048c-4.823,0.04-10.838-3.433-12.938-7.75
				c-2.108-4.316,0.726-8.149,5.902-8.365c1.558-0.061,3.116-0.12,4.674-0.178c-0.899-2.688-1.69-5.376-2.373-8.066
				c-0.254-0.981-1.419-6.249,1.236-11.943c3.823-8.584,13.337-14.026,25.096-14.887c5.575-0.41,9.962,3.178,10.239,7.924
				c0.272,4.896-3.607,8.917-9.104,9.177c-5.174,0.258-6.776,2.094-7.482,3.868c-1.024,1.938-0.897,4.247-0.745,4.964
				c0.573,2.774,1.238,5.546,1.993,8.315c3.117-0.098,6.233-0.191,9.35-0.28C53.84,48.98,58.86,52.84,60.103,57.528z"/>
			<path fill="none" stroke="#649F42" stroke-width="2" stroke-linecap="round" stroke-linejoin="round" stroke-miterlimit="10" d="
				M80.154,21.933c1.163,29.56,7.517,58.566,19.062,87.018c1.832,4.682,0.859,8.352-2.466,8.174
				c-3.216-0.174-8.166-4.07-10.766-8.682C70.528,80.352,62.022,51.801,60.465,22.789C60.203,18.03,64.6,13.876,70,13.587
				C75.574,13.29,79.963,17.067,80.154,21.933z"/>
			<path fill="none" stroke="#649F42" stroke-width="2" stroke-linecap="round" stroke-linejoin="round" stroke-miterlimit="10" d="
				M149.354,56.904c-0.422,11.541-1.004,22.98-1.746,34.319c-0.046,1.199-0.694,7.041-3.553,13.154
				c-4.402,8.943-10.148,13.832-17.63,13.722c-7.563-0.117-14.83-5.163-21.383-14.076c-4.526-6.097-6.452-11.858-6.75-13.044
				c-3.185-11.196-5.684-22.48-7.496-33.853c-0.816-4.953,2.899-8.946,8.076-9.015c5.183-0.069,9.833,3.857,10.292,8.868
				c1.111,11.483,2.643,22.87,4.596,34.16c0.046,0.298,0.666,2.984,2.257,5.526c1.363,1.944,3.321,4.048,8.089,4.089
				c4.644,0.035,6.22-2.049,7.011-3.988c1.129-2.537,1.17-5.236,1.152-5.535c-0.479-11.344-0.854-22.789-1.127-34.335
				c-0.144-5.034,3.978-9.034,9.158-9.031C145.48,47.87,149.563,51.874,149.354,56.904z"/>
			<path fill="none" stroke="#649F42" stroke-width="2" stroke-linecap="round" stroke-linejoin="round" stroke-miterlimit="10" d="
				M214.849,82.918c-9.63,18.271-31.167,33.944-42.422,34.551c-4.099,0.173-7.249-1.304-9.927-4.164
				c-1.818,2.674-4.261,4.639-6.606,4.69c-3.222,0.072-5.335-3.727-4.776-8.472c3.792-28.86,5.878-58.379,6.26-88.556
				c0.062-4.962,4.452-8.954,9.855-8.832c5.57,0.126,9.965,4.28,9.832,9.196c-0.269,10.357-0.951,20.641-2.048,30.85
				c5.057-2.532,10.893-3.964,16.86-3.861C211.474,48.777,224.281,64.538,214.849,82.918z M198.714,83.109
				c3.685-9.481-1.301-17.198-9.91-17.262c-8.783-0.06-16.708,7.769-18.464,17.489c-1.668,9.571,1.947,17.184,8.76,17.013
				C185.768,100.172,195.062,92.448,198.714,83.109z"/>
			<path fill="none" stroke="#649F42" stroke-width="2" stroke-linecap="round" stroke-linejoin="round" stroke-miterlimit="10" d="
				M266.863,58.614c-2.099,4.318-8.113,7.791-12.937,7.75c-2.892-0.032-6.896,0.34-9.438,2.425c-0.801,0.695-1.379,1.533-1.38,1.533
				c-6.296,12.241-14.733,24.446-25.313,36.612c-3.921,4.432-10.055,8.275-13.372,8.56c-3.226,0.275-3.012-3.205,0.14-7.748
				c11.736-16.538,20.311-33.195,25.722-49.973c1.51-4.756,6.631-8.382,11.816-8.201c2.418,0.08,4.312,0.861,5.501,2.179
				c3.938-1.156,8.36-1.698,13.36-1.503C266.135,50.464,269.031,54.162,266.863,58.614z"/>
		</g>
	</g>
</g>
</svg>
